<svg width="50" height="50" viewBox="0 0 50 50" fill="none" xmlns="http://www.w3.org/2000/svg">
<mask id="mask0_1628_22276" style="mask-type:alpha" maskUnits="userSpaceOnUse" x="0" y="0" width="50" height="50">
<circle cx="25" cy="25" r="25" fill="white"/>
</mask>
<g mask="url(#mask0_1628_22276)">
<rect width="50" height="50" fill="#D3EFF8"/>
<mask id="mask1_1628_22276" style="mask-type:alpha" maskUnits="userSpaceOnUse" x="18" y="10" width="15" height="21">
<path d="M21.328 10.0337H26.3761C26.3859 10.7141 26.9367 11.3199 28.0285 11.851C32.2319 13.8959 32.2319 17.46 32.2319 20.9376C32.2319 24.6173 31.7918 27.459 30.9115 29.4624C30.6538 30.0491 30.0735 30.428 29.4326 30.428H21.5411C20.8373 30.428 20.2145 29.9723 20.0015 29.3015C18.9046 25.8473 18.3562 22.6555 18.3562 19.726C18.3562 17.1133 20.1488 14.4448 21.0213 11.851C21.1621 11.4323 21.2644 10.8265 21.328 10.0337Z" fill="white"/>
</mask>
<g mask="url(#mask1_1628_22276)">
<path d="M21.328 10.0355H26.3761C26.386 10.7159 26.9368 11.3217 28.0285 11.8528C32.2319 13.8977 32.2319 17.4618 32.2319 20.9394C32.2319 24.6192 31.7918 27.4608 30.9116 29.4642C30.6538 30.0509 30.0735 30.4298 29.4327 30.4298H21.5412C20.8374 30.4298 20.2146 29.9741 20.0016 29.3033C18.9047 25.8491 18.3563 22.6573 18.3563 19.7278C18.3563 17.1151 20.1489 14.4466 21.0214 11.8528C21.1622 11.4341 21.2644 10.8283 21.328 10.0355Z" fill="#FF7B22"/>
<path d="M32.2322 10.0355H24.3571V30.4298H32.2322V10.0355Z" fill="#E24C00"/>
<mask id="mask2_1628_22276" style="mask-type:alpha" maskUnits="userSpaceOnUse" x="19" y="11" width="13" height="17">
<path d="M24.2806 11.8795C25.7698 11.8795 26.7733 12.5402 26.3755 13.1587C25.441 14.6971 24.9446 16.0033 26.9453 19.204C28.2791 21.3378 29.6542 22.5231 31.0705 22.7598L30.597 26.4008C30.4923 27.2056 29.8067 27.8079 28.9951 27.8079H22.518C21.9115 27.8079 21.3726 27.421 21.1787 26.8463C20.5314 24.9282 20.1292 22.8375 19.9719 20.5742C19.6961 16.6032 21.7729 11.8795 24.2806 11.8795Z" fill="white"/>
</mask>
<g mask="url(#mask2_1628_22276)">
<path d="M24.2808 11.8779C25.77 11.8779 26.7736 12.5386 26.3757 13.1571C25.4413 14.6955 24.9448 16.0017 26.9455 19.2024C28.2793 21.3362 29.6544 22.5215 31.0707 22.7582L30.5972 26.3992C30.4925 27.204 29.8069 27.8063 28.9953 27.8063H22.5182C21.9117 27.8063 21.3728 27.4194 21.1789 26.8448C20.5316 24.9267 20.1294 22.836 19.9721 20.5727C19.6963 16.6016 21.7731 11.8779 24.2808 11.8779Z" fill="#E24C00"/>
</g>
</g>
<path d="M26.3764 8.42165H21.3283V9.83511H26.3764V8.42165Z" fill="#99CC33"/>
<path d="M26.1741 9.83487H21.5298V10.0415H26.1741V9.83487Z" fill="#A93900"/>
<path d="M26.3764 8.42165H24.3572V9.83511H26.3764V8.42165Z" fill="#669900"/>
<path d="M25.9726 6H21.7322V8.62501H25.9726V6Z" fill="#99CC33"/>
<path d="M25.9726 6H24.3572V8.62501H25.9726V6Z" fill="#669900"/>
<mask id="mask3_1628_22276" style="mask-type:alpha" maskUnits="userSpaceOnUse" x="25" y="13" width="7" height="9">
<path d="M27.1526 13.5474C25.8064 14.009 25.1265 16.0907 26.8228 18.8601C28.519 21.6294 29.6424 22.0386 30.565 21.4703C31.6235 20.9911 31.4714 18.7213 30.565 16.3401C29.6585 13.9589 28.2353 13.1824 27.1526 13.5474Z" fill="white"/>
</mask>
<g mask="url(#mask3_1628_22276)">
<path d="M27.1523 13.5485C25.8061 14.01 25.1262 16.0918 26.8224 18.8611C28.5187 21.6305 29.6421 22.0396 30.5647 21.4714C31.6232 20.9921 31.4711 18.7224 30.5647 16.3412C29.6582 13.96 28.235 13.1834 27.1523 13.5485Z" fill="#BC3F00"/>
<path fill-rule="evenodd" clip-rule="evenodd" d="M26.8835 20.2346L32.6448 14.9079L34.2511 23.7683H26.3761L26.8835 20.2346Z" fill="#FF7B22"/>
</g>
<path fill-rule="evenodd" clip-rule="evenodd" d="M27.3758 14.5859C26.4298 14.9144 26.4398 16.7986 27.5077 18.4705C28.5755 20.1425 29.4759 20.8372 30.1019 20.442C30.728 20.0206 30.6632 18.5851 29.8953 16.6289C29.1274 14.6726 27.975 14.3383 27.3758 14.5859Z" fill="#D2EFF9"/>
<mask id="mask4_1628_22276" style="mask-type:alpha" maskUnits="userSpaceOnUse" x="18" y="10" width="15" height="21">
<path d="M21.328 10.0337H26.3761C26.3859 10.7141 26.9367 11.3199 28.0285 11.851C32.2319 13.8959 32.2319 17.46 32.2319 20.9376C32.2319 24.6173 31.7918 27.459 30.9115 29.4624C30.6538 30.0491 30.0735 30.428 29.4326 30.428H21.5411C20.8373 30.428 20.2145 29.9723 20.0015 29.3015C18.9046 25.8473 18.3562 22.6555 18.3562 19.726C18.3562 17.1133 20.1488 14.4448 21.0213 11.851C21.1621 11.4323 21.2644 10.8265 21.328 10.0337Z" fill="white"/>
</mask>
<g mask="url(#mask4_1628_22276)">
<path fill-rule="evenodd" clip-rule="evenodd" d="M18.2681 11.4594L32.232 24.5974L18.241 24.7864L18.2681 11.4594Z" fill="#BC3F00"/>
</g>
<mask id="mask5_1628_22276" style="mask-type:alpha" maskUnits="userSpaceOnUse" x="29" y="11" width="5" height="7">
<path d="M31.6977 11.5349C32.2221 11.5349 32.6473 11.96 32.6473 12.4845C32.6473 12.6982 32.5767 12.8954 32.4575 13.0541L32.4575 13.3739C33.3426 13.6868 33.9767 14.531 33.9767 15.5232C33.9767 16.7819 32.9563 17.8023 31.6977 17.8023C30.439 17.8023 29.4186 16.7819 29.4186 15.5232C29.4186 14.5309 30.0528 13.6867 30.938 13.3738L30.9379 13.0543C30.8187 12.8956 30.748 12.6983 30.748 12.4845C30.748 11.96 31.1732 11.5349 31.6977 11.5349Z" fill="white"/>
</mask>
<g mask="url(#mask5_1628_22276)">
<path d="M31.6977 11.534C32.2221 11.534 32.6473 11.9591 32.6473 12.4836C32.6473 12.6973 32.5767 12.8945 32.4576 13.0532L32.4575 13.373C33.3426 13.6859 33.9768 14.5301 33.9768 15.5223C33.9768 16.781 32.9564 17.8014 31.6977 17.8014C30.439 17.8014 29.4186 16.781 29.4186 15.5223C29.4186 14.53 30.0528 13.6858 30.938 13.3729L30.9379 13.0534C30.8187 12.8947 30.7481 12.6974 30.7481 12.4836C30.7481 11.9591 31.1732 11.534 31.6977 11.534Z" fill="#FEBC11"/>
<path fill-rule="evenodd" clip-rule="evenodd" d="M31.6973 11.47H34.7361V14.762H31.6973V13.116C31.824 12.9392 31.8873 12.6834 31.8873 12.3487C31.8873 12.0139 31.824 11.7211 31.6973 11.47Z" fill="#E7A908"/>
</g>
<mask id="mask6_1628_22276" style="mask-type:alpha" maskUnits="userSpaceOnUse" x="28" y="16" width="8" height="11">
<path d="M28.802 16.9487L29.587 16.4695H33.8075L34.5525 16.9243C35.0829 17.248 35.3627 17.862 35.259 18.4746C35.1354 19.2052 35.0736 20.1168 35.0736 21.2095C35.0736 22.2952 35.1347 23.3809 35.2567 24.4666C35.3504 25.3004 34.7503 26.0524 33.9165 26.1461C33.8601 26.1524 33.8035 26.1556 33.7468 26.1556H29.618C28.7788 26.1556 28.0986 25.4754 28.0986 24.6362C28.0986 24.5809 28.1016 24.5255 28.1076 24.4705C28.2498 23.1753 28.3208 22.0883 28.3208 21.2095C28.3208 20.3047 28.2455 19.3999 28.0948 18.4951C27.993 17.8836 28.2729 17.2716 28.802 16.9487Z" fill="white"/>
</mask>
<g mask="url(#mask6_1628_22276)">
<path d="M28.8023 16.95L29.5872 16.4709H33.8078L34.5528 16.9256C35.0831 17.2493 35.3629 17.8633 35.2593 18.4759C35.1357 19.2065 35.0739 20.1182 35.0739 21.2109C35.0739 22.2966 35.1349 23.3822 35.2569 24.4679C35.3506 25.3018 34.7506 26.0537 33.9167 26.1475C33.8604 26.1538 33.8037 26.157 33.747 26.157H29.6182C28.7791 26.157 28.0988 25.4767 28.0988 24.6376C28.0988 24.5822 28.1019 24.5269 28.1079 24.4718C28.25 23.1767 28.3211 22.0897 28.3211 21.2109C28.3211 20.3061 28.2458 19.4013 28.0951 18.4965C27.9933 17.885 28.2731 17.273 28.8023 16.95Z" fill="#F5F5F5"/>
<path fill-rule="evenodd" clip-rule="evenodd" d="M29.0385 16.2827H35.116V17.0424H29.6082L29.0385 16.2827Z" fill="#D8D8D8"/>
<path fill-rule="evenodd" clip-rule="evenodd" d="M31.6979 16.6602C31.2818 15.5698 32.4846 15.5698 35.3064 16.6602V26.1563C32.3373 27.0833 31.1344 27.0833 31.6979 26.1563C32.543 24.7659 31.6979 23.3288 31.6979 21.1059C31.6979 18.8831 32.3219 18.2958 31.6979 16.6602Z" fill="#D8D8D8"/>
<path d="M29.418 18.7505H28.0886C27.9837 18.7505 27.8986 18.8355 27.8986 18.9404C27.8986 19.0453 27.9837 19.1304 28.0886 19.1304H29.418C29.5229 19.1304 29.6079 19.0453 29.6079 18.9404C29.6079 18.8355 29.5229 18.7505 29.418 18.7505Z" fill="#D8D8D8"/>
<path d="M28.6583 19.8903H28.0886C27.9837 19.8903 27.8986 19.9753 27.8986 20.0802C27.8986 20.1851 27.9837 20.2701 28.0886 20.2701H28.6583C28.7632 20.2701 28.8482 20.1851 28.8482 20.0802C28.8482 19.9753 28.7632 19.8903 28.6583 19.8903Z" fill="#D8D8D8"/>
<path d="M29.418 21.0301H28.0886C27.9837 21.0301 27.8986 21.1152 27.8986 21.22C27.8986 21.3249 27.9837 21.41 28.0886 21.41H29.418C29.5229 21.41 29.6079 21.3249 29.6079 21.22C29.6079 21.1152 29.5229 21.0301 29.418 21.0301Z" fill="#D8D8D8"/>
<path d="M28.6583 22.1699H28.0886C27.9837 22.1699 27.8986 22.255 27.8986 22.3598C27.8986 22.4647 27.9837 22.5498 28.0886 22.5498H28.6583C28.7632 22.5498 28.8482 22.4647 28.8482 22.3598C28.8482 22.255 28.7632 22.1699 28.6583 22.1699Z" fill="#D8D8D8"/>
<path d="M29.418 23.3097H28.0886C27.9837 23.3097 27.8986 23.3948 27.8986 23.4996C27.8986 23.6045 27.9837 23.6896 28.0886 23.6896H29.418C29.5229 23.6896 29.6079 23.6045 29.6079 23.4996C29.6079 23.3948 29.5229 23.3097 29.418 23.3097Z" fill="#D8D8D8"/>
</g>
<mask id="mask7_1628_22276" style="mask-type:alpha" maskUnits="userSpaceOnUse" x="28" y="14" width="7" height="3">
<path d="M34.5461 14.757H28.8484C28.7435 14.757 28.6585 14.842 28.6585 14.9469V16.4663C28.6585 16.5712 28.7435 16.6562 28.8484 16.6562H34.5461C34.651 16.6562 34.736 16.5712 34.736 16.4663V14.9469C34.736 14.842 34.651 14.757 34.5461 14.757Z" fill="white"/>
</mask>
<g mask="url(#mask7_1628_22276)">
<path d="M34.5462 14.7589H28.8486C28.7437 14.7589 28.6586 14.8439 28.6586 14.9488V16.4682C28.6586 16.5731 28.7437 16.6581 28.8486 16.6581H34.5462C34.6511 16.6581 34.7362 16.5731 34.7362 16.4682V14.9488C34.7362 14.8439 34.6511 14.7589 34.5462 14.7589Z" fill="#96D6F4"/>
<path d="M34.736 14.7589H31.6972V16.6581H34.736V14.7589Z" fill="#81B7D1"/>
</g>
<mask id="mask8_1628_22276" style="mask-type:alpha" maskUnits="userSpaceOnUse" x="13" y="10" width="9" height="11">
<path d="M21.3708 10.9482H13.4574V20.0486H21.3708V10.9482Z" fill="white"/>
</mask>
<g mask="url(#mask8_1628_22276)">
<path fill-rule="evenodd" clip-rule="evenodd" d="M9.65521 25.8368C10.1427 27.2127 12.0468 27.0623 13.2858 26.7896C14.8616 26.4506 16.1709 25.5653 17.3399 24.4093C19.3602 22.4088 20.7699 18.9235 20.1164 16.1565C19.7051 14.3948 19.055 13.4201 17.2624 13.073C16.4672 12.9207 15.9595 12.6892 15.7838 11.8587C15.6903 11.4112 15.8711 11.2782 15.3851 11.6112C14.8944 11.9536 14.9706 12.1097 15.3048 12.5251C16.264 13.7257 17.4949 14.6388 18.0037 16.1903C18.4305 17.4886 18.1638 19.1099 17.5879 20.3755C16.1519 23.5649 12.9936 25.7945 9.65521 25.8368Z" fill="#FFCD00"/>
<path fill-rule="evenodd" clip-rule="evenodd" d="M9.58082 25.6055C10.2861 24.5005 11.4103 23.971 12.5141 23.3724C13.6639 22.7498 14.6392 21.9453 15.3542 20.8216C16.0023 19.8056 16.5453 18.5601 16.5629 17.3565C16.5756 16.0327 16.1883 14.9198 15.5888 13.8062C15.41 13.4809 15.3057 13.3578 15.0423 13.1312C14.9106 13.018 14.3728 12.7593 14.3605 12.5883C14.336 12.3759 14.785 12.0484 14.9698 12.0589C15.1457 12.065 15.3745 12.3801 15.5103 12.5072C16.5777 13.5383 17.2587 14.1044 18.0473 15.3719C18.2916 15.7654 18.6601 16.763 18.681 17.2207C18.7166 17.9096 18.4709 18.7749 18.2726 19.4403C18.1248 19.9428 17.8973 20.5346 17.6647 21.0063C17.3742 21.5901 17.0363 22.2441 16.6351 22.7605C15.7813 23.8497 14.3196 24.751 13.1788 25.5076C12.1348 26.2069 10.2636 26.7963 9.58082 25.6055Z" fill="#F9E741"/>
<path fill-rule="evenodd" clip-rule="evenodd" d="M14.2699 12.5411C14.5094 12.4025 14.8022 12.2907 14.9989 12.0835C15.1439 11.9327 15.2849 11.7682 15.426 11.6036C15.5243 11.5 15.5645 11.3789 15.3796 11.3684C15.24 11.3571 15.0594 11.49 14.9263 11.5526C14.7884 11.6245 14.7037 11.7232 14.6006 11.8362C14.4974 11.9492 14.4169 12.0617 14.3356 12.1974C14.255 12.31 14.1099 12.4607 14.2699 12.5411Z" fill="#333333"/>
</g>
<path fill-rule="evenodd" clip-rule="evenodd" d="M14.9255 19.8941H35.8352L36.5723 40.3481C36.604 41.2274 35.9169 41.9659 35.0376 41.9976C35.0185 41.9983 34.9994 41.9986 34.9802 41.9986H16.3339C15.454 41.9986 14.7408 41.2854 14.7408 40.4055C14.7408 40.4007 14.7408 40.3959 14.7408 40.3912L14.9255 19.8941Z" fill="#0271CE"/>
<path fill-rule="evenodd" clip-rule="evenodd" d="M13.7381 19.8941H35.8349L36.5719 40.3481C36.6036 41.2274 35.9165 41.9659 35.0372 41.9976C35.0181 41.9983 34.999 41.9986 34.9799 41.9986H14.5931C13.7133 41.9986 13 41.2854 13 40.4055C13 40.3864 13.0003 40.3673 13.001 40.3481L13.7381 19.8941Z" fill="#0271CE"/>
<path fill-rule="evenodd" clip-rule="evenodd" d="M22.7961 31.7227C22.7961 31.4011 22.6623 31.1183 22.2096 31.1183C21.9775 31.1183 21.7928 31.1852 21.6923 31.2449L21.766 31.5032C21.8578 31.4438 22.0046 31.3944 22.1433 31.3944C22.3729 31.3938 22.4104 31.5277 22.4104 31.6136V31.6338C21.9099 31.6331 21.5937 31.8109 21.5937 32.1729C21.5937 32.3937 21.7547 32.6009 22.0347 32.6009C22.207 32.6009 22.3509 32.5306 22.4372 32.4176H22.4456C22.4456 32.4176 22.5029 32.6626 22.8181 32.5691C22.8013 32.467 22.7961 32.3582 22.7961 32.2269V31.7227ZM22.4211 32.0616C22.4211 32.0878 22.4185 32.115 22.4117 32.1385C22.3826 32.2366 22.2834 32.3199 22.1592 32.3199C22.0557 32.3199 21.9736 32.2595 21.9736 32.1322C21.9736 31.9373 22.1828 31.8835 22.4211 31.8845V32.0616ZM15.4135 30.678C15.4523 30.8779 15.562 31.4581 15.562 31.4581C15.6082 31.6968 15.6505 31.9468 15.6826 32.1444H15.6884C15.7194 31.9345 15.7686 31.7356 15.8209 31.4889L16.0059 30.678H16.4149L16.5879 31.5102C16.6335 31.7416 16.6694 31.9199 16.6978 32.1351H16.7036C16.7347 31.9176 16.7751 31.732 16.82 31.4942L16.9859 30.678H17.3788L16.8921 32.5664C16.5824 32.6361 16.4634 32.5081 16.4211 32.3049C16.3784 32.102 16.2953 31.7154 16.2953 31.7154C16.2526 31.5035 16.2193 31.3543 16.196 31.1368H16.1902C16.1569 31.352 16.1223 31.5029 16.0702 31.7144L15.8662 32.5664C15.5497 32.6308 15.4401 32.5353 15.3793 32.275C15.3269 32.0519 15 30.678 15 30.678H15.4135ZM18.4935 31.7227C18.4935 31.4011 18.3597 31.1183 17.9073 31.1183C17.6749 31.1183 17.4906 31.1852 17.3897 31.2449L17.4634 31.5032C17.5555 31.4438 17.702 31.3944 17.8407 31.3944C18.0703 31.3938 18.1081 31.5277 18.1081 31.6136V31.6338C17.6076 31.6331 17.2914 31.8109 17.2914 32.1729C17.2914 32.3937 17.4524 32.6009 17.7321 32.6009C17.9044 32.6009 18.0483 32.5306 18.135 32.4176H18.1434C18.1434 32.4176 18.2006 32.6626 18.5155 32.5691C18.499 32.467 18.4935 32.3582 18.4935 32.2269V31.7227ZM18.1199 32.0616C18.1199 32.0878 18.1176 32.115 18.1105 32.1385C18.0817 32.2366 17.9825 32.3199 17.8583 32.3199C17.7548 32.3199 17.6724 32.2595 17.6724 32.1322C17.6724 31.9373 17.8816 31.8835 18.1199 31.8845V32.0616ZM18.7424 32.5664H19.1165V30.678H18.7424V32.5664ZM24.3775 30.678V31.1246H24.7034V31.4859H24.3775V32.0187C24.3775 32.1911 24.4205 32.275 24.5479 32.275C24.6077 32.275 24.6517 32.2671 24.6898 32.2574L24.6947 32.5572C24.6432 32.5767 24.5346 32.5983 24.424 32.5983C24.294 32.5983 24.1854 32.5519 24.1194 32.4799C24.0441 32.3977 24.0089 32.2631 24.0089 32.0711V30.678H24.3775ZM23.3832 31.1504V31.418H23.3936C23.4624 31.2137 23.6264 31.1183 23.7703 31.1183C23.8065 31.1183 23.8262 31.1212 23.8553 31.1272V31.4985C23.8207 31.4936 23.7887 31.4886 23.7437 31.4886C23.5811 31.4886 23.4673 31.5857 23.4388 31.7379C23.433 31.7691 23.4304 31.8036 23.4304 31.8427V32.5691H23.0447V31.1504H23.3832ZM19.7365 31.1504V31.343H19.742C19.8057 31.2399 19.9111 31.1183 20.1449 31.1183C20.3272 31.1183 20.4669 31.2194 20.5264 31.3722H20.5319C20.583 31.295 20.6415 31.2366 20.7072 31.1955C20.7851 31.1464 20.8711 31.1183 20.98 31.1183C21.2264 31.1183 21.4447 31.293 21.4447 31.7336V32.5691H21.0686V31.7916C21.0686 31.5685 20.9949 31.4392 20.841 31.4392C20.7285 31.4392 20.6464 31.5168 20.6156 31.6119C20.605 31.6448 20.5998 31.6898 20.5998 31.727V32.5691H20.2244V31.7605C20.2244 31.5708 20.1533 31.4392 20.0016 31.4392C19.8804 31.4392 19.8044 31.537 19.7734 31.6209C19.7598 31.6567 19.7556 31.6981 19.7556 31.7369V32.5691H19.3795V31.1504H19.7365Z" fill="white"/>
<path fill-rule="evenodd" clip-rule="evenodd" d="M26.5836 31.0036L26.5102 30.1522C26.5102 30.068 26.6062 29.999 26.7271 29.999C26.8481 29.999 26.9441 30.068 26.9441 30.1522L26.8707 31.0036C26.8623 31.055 26.8012 31.0945 26.7268 31.0945C26.6528 31.0945 26.5917 31.055 26.5836 31.0036M26.1303 31.441L25.3747 31.0803C25.3038 31.0386 25.2932 30.9185 25.3536 30.8114C25.4141 30.704 25.5205 30.6533 25.5913 30.6954L26.2738 31.1861C26.313 31.2192 26.3159 31.2928 26.2787 31.3592C26.2418 31.4248 26.1775 31.4593 26.1303 31.441M27.1804 31.1861L27.863 30.6954C27.9338 30.6533 28.0405 30.704 28.101 30.8114C28.1611 30.9185 28.1511 31.0386 28.0799 31.0803L27.324 31.441C27.2768 31.4593 27.2128 31.4248 27.1756 31.3592C27.1384 31.2932 27.1416 31.2192 27.1804 31.1861M26.7268 32.1539C26.8012 32.1539 26.8623 32.1933 26.8707 32.2447L26.9441 33.0958C26.9441 33.1803 26.8481 33.2493 26.7271 33.2493C26.6062 33.2493 26.5102 33.1803 26.5102 33.0958L26.5836 32.2447C26.5917 32.1933 26.6528 32.1539 26.7268 32.1539M27.1756 31.8893C27.2128 31.8233 27.2768 31.7891 27.324 31.8074L28.0799 32.1678C28.1511 32.2099 28.1611 32.3299 28.101 32.437C28.0405 32.5441 27.9338 32.5951 27.863 32.553L27.1804 32.0627C27.1416 32.0292 27.1384 31.9552 27.1756 31.8893M26.2787 31.8893C26.3159 31.9552 26.313 32.0292 26.2738 32.0627L25.5913 32.553C25.5205 32.5951 25.4141 32.5441 25.3536 32.437C25.2932 32.3299 25.3038 32.2099 25.3747 32.1678L26.1303 31.8074C26.1775 31.7891 26.2418 31.8233 26.2787 31.8893" fill="#FFC225"/>
<path fill-rule="evenodd" clip-rule="evenodd" d="M27.476 20.0266C27.476 23.4726 24.935 26.2661 21.8005 26.2661C18.666 26.2661 16.125 23.4726 16.125 20.0266C16.125 19.9822 16.1254 19.938 16.1263 19.8938L17.0274 19.8938C17.0264 19.9379 17.0259 19.9822 17.0259 20.0266C17.0259 22.8709 19.1636 25.1767 21.8005 25.1767C24.4375 25.1767 26.5751 22.8709 26.5751 20.0266C26.5751 19.9822 26.5746 19.9379 26.5736 19.8938L27.4748 19.8938C27.4756 19.938 27.476 19.9822 27.476 20.0266Z" fill="#0056A8"/>
<path fill-rule="evenodd" clip-rule="evenodd" d="M26.6798 20.0103C26.6798 23.0255 24.1387 25.4699 21.0043 25.4699C17.8698 25.4699 15.3288 23.0255 15.3288 20.0103C15.3288 19.9714 15.3292 19.9326 15.33 19.8939L16.2312 19.8938C16.2301 19.9325 16.2296 19.9713 16.2296 20.0103C16.2296 22.4991 18.3673 24.5166 21.0043 24.5166C23.6412 24.5166 25.7789 22.4991 25.7789 20.0103C25.7789 19.9713 25.7784 19.9325 25.7773 19.8938L26.6785 19.8939C26.6793 19.9326 26.6798 19.9714 26.6798 20.0103Z" fill="#0271CE"/>
<mask id="mask9_1628_22276" style="mask-type:alpha" maskUnits="userSpaceOnUse" x="29" y="19" width="8" height="23">
<path d="M29.8603 19.8936H35.8345L36.5716 40.3477C36.6033 41.2269 35.9162 41.9654 35.0369 41.9971C35.0177 41.9978 34.9986 41.9982 34.9795 41.9982H31.4534C30.5736 41.9982 29.8603 41.2849 29.8603 40.405V19.8936Z" fill="white"/>
</mask>
<g mask="url(#mask9_1628_22276)">
<path d="M29.8606 19.8938H35.8348L36.5719 40.3479C36.6036 41.2272 35.9165 41.9657 35.0372 41.9974C35.0181 41.9981 34.999 41.9984 34.9798 41.9984H31.4538C30.5739 41.9984 29.8606 41.2851 29.8606 40.4053V19.8938Z" fill="#0065B8"/>
<path fill-rule="evenodd" clip-rule="evenodd" d="M35.4323 41.9976H31.0785L29.9273 41.0133L32.6199 38.6786L35.6983 41.2682C35.8729 41.4151 35.8954 41.6757 35.7485 41.8504C35.67 41.9437 35.5543 41.9976 35.4323 41.9976Z" fill="#0056A8"/>
<path fill-rule="evenodd" clip-rule="evenodd" d="M36.4598 19.5458H30.9729L29.8218 20.5301L32.5143 22.8648L36.4598 19.5458Z" fill="#0056A8"/>
</g>
<path fill-rule="evenodd" clip-rule="evenodd" d="M29.755 19.8941H32.9002L33.2458 41.9986H30.7075C29.8277 41.9986 29.1144 41.2854 29.1144 40.4055C29.1144 40.3889 29.1147 40.3723 29.1152 40.3557L29.755 19.8941Z" fill="#0056A8"/>
</g>
</svg>
