<svg width="50" height="50" viewBox="0 0 50 50" fill="none" xmlns="http://www.w3.org/2000/svg">
<mask id="mask0_1628_22442" style="mask-type:alpha" maskUnits="userSpaceOnUse" x="0" y="0" width="50" height="50">
<circle cx="25" cy="25" r="25" fill="white"/>
</mask>
<g mask="url(#mask0_1628_22442)">
<rect x="-1.5625" y="-2.50002" width="53.125" height="53.125" fill="#D3EFF8"/>
<path fill-rule="evenodd" clip-rule="evenodd" d="M31.7564 12.7919L26.5114 19.8012H25.1681L30.4567 12.7335L28.9879 12.6675L23.6498 19.8012H20.5048L25.9451 12.5307L25.2628 12.5L11.8741 13.1062V21.875H38.7491V13.1062L31.7564 12.7919Z" fill="#D8E3F4"/>
<path fill-rule="evenodd" clip-rule="evenodd" d="M23.8682 19.375L29.3742 12.016L26.2357 11.875L20.6242 19.375H23.8682Z" fill="#EEF2FA"/>
<path fill-rule="evenodd" clip-rule="evenodd" d="M26.4015 19.375L31.8747 11.9371L30.5185 11.875L24.9997 19.375H26.4015Z" fill="#EEF2FA"/>
<mask id="mask1_1628_22442" style="mask-type:alpha" maskUnits="userSpaceOnUse" x="11" y="6" width="29" height="13">
<path fill-rule="evenodd" clip-rule="evenodd" d="M11.2828 6.87497H39.4781V18.1893H11.2828V6.87497Z" fill="white"/>
</mask>
<g mask="url(#mask1_1628_22442)">
<path fill-rule="evenodd" clip-rule="evenodd" d="M12.1564 18.1893V15.8294L25.1576 9.71497L38.3176 16.0088V18.1893H39.4781V14.8694C39.4781 13.6279 37.7088 10.76 37.7088 10.76C36.5213 8.58597 35.0044 6.87495 32.6269 6.87495H18.2117C15.8341 6.87495 14.1838 8.54654 13.1297 10.76C13.1297 10.76 11.3385 13.6279 11.3385 14.7343L11.2828 18.1893H12.1564Z" fill="#80B8EE"/>
</g>
<path fill-rule="evenodd" clip-rule="evenodd" d="M37.7065 12.6899C36.517 10.5159 34.9978 8.8049 32.6165 8.8049H28.4338H22.3611H18.1785C15.7973 8.8049 14.1443 10.4765 13.0885 12.6899C13.0885 12.6899 11.2947 15.5578 11.2947 16.6642L11.1447 28.3007L11.1481 30.3535H12.2805V20.2227V16.5089C15.6977 14.0429 19.1239 12.4971 24.5638 12.4971C30.0036 12.4971 34.8989 14.0429 38.3161 16.5089V18.1745V18.8182V20.4838V30.3535H39.4784V17.5502V16.7994C39.4784 15.5578 37.7065 12.6899 37.7065 12.6899" fill="#0B1E40"/>
<path fill-rule="evenodd" clip-rule="evenodd" d="M13.3252 39.6244H9.88196C9.10272 39.6244 8.46521 39.0897 8.46521 38.4362V28.2623C8.46521 27.6089 9.10272 27.0742 9.88196 27.0742H13.3252C14.1044 27.0742 14.7419 27.6089 14.7419 28.2623V38.4362C14.7419 39.0897 14.1044 39.6244 13.3252 39.6244" fill="#041E42"/>
<rect x="12.0004" y="33" width="25" height="3" fill="#041E42"/>
<path fill-rule="evenodd" clip-rule="evenodd" d="M40.7265 39.6244H37.2833C36.5041 39.6244 35.8666 39.0897 35.8666 38.4362V28.2623C35.8666 27.6089 36.5041 27.0742 37.2833 27.0742H40.7265C41.5058 27.0742 42.1433 27.6089 42.1433 28.2623V38.4362C42.1433 39.0897 41.5058 39.6244 40.7265 39.6244" fill="#041E42"/>
<path fill-rule="evenodd" clip-rule="evenodd" d="M42.5166 22.3652L40.0818 19.4907C39.9156 19.2619 39.6004 19.2496 39.3347 19.2496H26.1575H25.9355H11.2892C11.0234 19.2496 10.7259 19.2769 10.542 19.4907L8.10717 22.3652C7.80144 22.7374 7.49939 23.0902 7.49939 23.5784V33.0622C7.49939 33.8655 8.106 34.5165 8.85438 34.5165H25.6034H26.4895H41.7696C42.5178 34.5165 43.1244 33.8655 43.1244 33.0622V23.5784C43.1244 23.0902 42.7827 22.7102 42.5166 22.3652" fill="#80B8EE"/>
<mask id="mask2_1628_22442" style="mask-type:alpha" maskUnits="userSpaceOnUse" x="7" y="19" width="37" height="16">
<path fill-rule="evenodd" clip-rule="evenodd" d="M26.1576 19.375H25.9355H11.2892C11.0236 19.375 10.7259 19.4018 10.542 19.6119V19.6119L8.10717 22.4361C7.80159 22.8017 7.49939 23.1483 7.49939 23.6281V23.6281V32.9459C7.49939 33.735 8.106 34.375 8.85438 34.375V34.375H25.6034H26.4896H41.7696C42.5179 34.375 43.1244 33.735 43.1244 32.9459V32.9459V23.6281C43.1244 23.1483 42.7827 22.7749 42.5168 22.4361V22.4361L40.0818 19.6119C39.9156 19.3869 39.6004 19.375 39.3347 19.375V19.375H26.1576Z" fill="white"/>
</mask>
<g mask="url(#mask2_1628_22442)">
<path fill-rule="evenodd" clip-rule="evenodd" d="M5.00037 35H48.0004V32H5.00037V35Z" fill="#0071DC"/>
<mask id="mask3_1628_22442" style="mask-type:alpha" maskUnits="userSpaceOnUse" x="7" y="19" width="37" height="16">
<path fill-rule="evenodd" clip-rule="evenodd" d="M26.1576 19.375H25.9355H11.2892C11.0236 19.375 10.7259 19.4018 10.542 19.6119V19.6119L8.10717 22.4361C7.80159 22.8017 7.49939 23.1483 7.49939 23.6281V23.6281V32.9459C7.49939 33.735 8.106 34.375 8.85438 34.375V34.375H25.6034H26.4896H41.7696C42.5179 34.375 43.1244 33.735 43.1244 32.9459V32.9459V23.6281C43.1244 23.1483 42.7827 22.7749 42.5168 22.4361V22.4361L40.0818 19.6119C39.9156 19.3869 39.6004 19.375 39.3347 19.375V19.375H26.1576Z" fill="white"/>
</mask>
<g mask="url(#mask3_1628_22442)">
<path fill-rule="evenodd" clip-rule="evenodd" d="M11.9177 24.2169C11.9177 23.8502 11.6117 23.5504 11.2378 23.5504H3.84642C3.47237 23.5504 3.16635 23.8502 3.16635 24.2169V27.0798H11.9177V24.2169Z" fill="#EF3E23"/>
</g>
<path fill-rule="evenodd" clip-rule="evenodd" d="M38.7262 24.2169C38.7262 23.8502 39.0322 23.5504 39.4061 23.5504H48.2666C48.6407 23.5504 48.9467 23.8502 48.9467 24.2169V27.0798H38.7262V24.2169Z" fill="#EF3E23"/>
<path fill-rule="evenodd" clip-rule="evenodd" d="M3.16635 27.6213H11.9177V26.8887H3.16635V27.6213Z" fill="white"/>
<path fill-rule="evenodd" clip-rule="evenodd" d="M38.7262 27.6213H48.9467V26.8887H38.7262V27.6213Z" fill="white"/>
<path fill-rule="evenodd" clip-rule="evenodd" d="M37.0738 16.3389H34.4257H17.6621H13.5447C12.4861 17.5027 12.022 19.1531 12.4726 20.7834L13.956 26.1493C14.5332 28.2372 16.4662 29.6869 18.673 29.6869H22.5492H29.5384H33.4146C35.6214 29.6869 36.0854 28.2372 36.6624 26.1493L38.1458 20.7834C38.5966 19.1531 38.1323 17.5027 37.0738 16.3389" fill="#0B1E40"/>
</g>
<mask id="mask4_1628_22442" style="mask-type:alpha" maskUnits="userSpaceOnUse" x="12" y="18" width="27" height="12">
<path fill-rule="evenodd" clip-rule="evenodd" d="M26.1474 18.75H25.9286H12.5021C12.4872 19.227 12.5402 19.7149 12.6687 20.2013V20.2013L14.1298 25.7301C14.6982 27.8813 16.6022 29.375 18.7758 29.375V29.375H22.5936H29.4777H33.2956C35.4692 29.375 35.926 27.8813 36.4945 25.7301V25.7301L37.9556 20.2013C38.0841 19.7149 38.1371 19.227 38.1223 18.75V18.75H26.1474Z" fill="white"/>
</mask>
<g mask="url(#mask4_1628_22442)">
<path fill-rule="evenodd" clip-rule="evenodd" d="M28.4284 21.1189H30.7489V20.2362H28.4284V21.1189ZM31.3038 21.1189V19.9521L31.0267 19.668H28.152L27.8749 19.9521V21.1189H25.86V29.6235H33.3186V21.1189H31.3038Z" fill="#0071DC"/>
<path fill-rule="evenodd" clip-rule="evenodd" d="M20.0583 21.1189H22.3787V20.2362H20.0583V21.1189ZM22.9327 21.1189V19.9521L22.6556 19.668H19.7809L19.5038 19.9521V21.1189H17.489V29.6235H24.9475V21.1189H22.9327Z" fill="#0071DC"/>
<path fill-rule="evenodd" clip-rule="evenodd" d="M21.7314 24.8374C21.7314 24.6935 21.6715 24.5669 21.469 24.5669C21.3651 24.5669 21.2824 24.5969 21.2374 24.6236L21.2704 24.7392C21.3115 24.7126 21.3772 24.6905 21.4393 24.6905C21.542 24.6902 21.5588 24.7502 21.5588 24.7886V24.7977C21.3348 24.7974 21.1933 24.8769 21.1933 25.0389C21.1933 25.1377 21.2654 25.2305 21.3907 25.2305C21.4678 25.2305 21.5322 25.199 21.5708 25.1484H21.5746C21.5746 25.1484 21.6002 25.2581 21.7413 25.2162C21.7338 25.1705 21.7314 25.1219 21.7314 25.0631V24.8374ZM21.5643 24.9894C21.5643 25.0011 21.5633 25.0132 21.5603 25.0238C21.5472 25.0677 21.5028 25.1049 21.4473 25.1049C21.401 25.1049 21.3642 25.0779 21.3642 25.021C21.3642 24.9337 21.4578 24.9097 21.5643 24.9101V24.9894ZM18.427 24.3711C18.4443 24.4605 18.4934 24.7202 18.4934 24.7202C18.5141 24.827 18.533 24.9389 18.5474 25.0274H18.55C18.5638 24.9334 18.5858 24.8444 18.6093 24.734L18.6921 24.3711H18.8751L18.9525 24.7435C18.9729 24.8471 18.989 24.9269 19.0017 25.0232H19.0043C19.0182 24.9259 19.0363 24.8428 19.0564 24.7364L19.1306 24.3711H19.3065L19.0887 25.2162C18.9501 25.2474 18.8968 25.1901 18.8777 25.0992C18.8588 25.0084 18.8216 24.8354 18.8216 24.8354C18.8025 24.7405 18.7876 24.6738 18.7771 24.5764H18.7745C18.7596 24.6727 18.7441 24.7402 18.7209 24.8349L18.6295 25.2162C18.4879 25.245 18.4388 25.2023 18.4116 25.0858C18.3882 24.986 18.2419 24.3711 18.2419 24.3711H18.427ZM19.8064 24.8374C19.8064 24.6935 19.7465 24.5669 19.5441 24.5669C19.44 24.5669 19.3574 24.5969 19.3124 24.6236L19.3454 24.7392C19.3866 24.7126 19.4522 24.6905 19.5143 24.6905C19.617 24.6902 19.6339 24.7502 19.6339 24.7886V24.7977C19.4099 24.7974 19.2684 24.8769 19.2684 25.0389C19.2684 25.1377 19.3405 25.2305 19.4656 25.2305C19.5428 25.2305 19.6072 25.199 19.6459 25.1484H19.6497C19.6497 25.1484 19.6753 25.2581 19.8162 25.2162C19.8089 25.1705 19.8064 25.1219 19.8064 25.0631V24.8374ZM19.6396 24.9894C19.6396 25.0011 19.6386 25.0132 19.6354 25.0238C19.6225 25.0677 19.5781 25.1049 19.5225 25.1049C19.4762 25.1049 19.4393 25.0779 19.4393 25.021C19.4393 24.9337 19.5329 24.9097 19.6396 24.9101V24.9894ZM19.9177 25.2162H20.0851V24.3711H19.9177V25.2162ZM22.4401 24.3711V24.5709H22.586V24.7327H22.4401V24.9711C22.4401 25.0483 22.4594 25.0858 22.5164 25.0858C22.5431 25.0858 22.5628 25.0822 22.5799 25.0779L22.5821 25.2121C22.5591 25.2208 22.5104 25.2305 22.4609 25.2305C22.4028 25.2305 22.3542 25.2097 22.3246 25.1775C22.2909 25.1407 22.2751 25.0805 22.2751 24.9946V24.3711H22.4401ZM21.9948 24.5813V24.7011H21.9995C22.0303 24.6097 22.1036 24.5669 22.168 24.5669C22.1842 24.5669 22.1931 24.5683 22.2061 24.5709V24.7371C22.1906 24.7349 22.1763 24.7327 22.1562 24.7327C22.0834 24.7327 22.0324 24.7761 22.0197 24.8443C22.0171 24.8582 22.016 24.8736 22.016 24.8911V25.2162H21.8433V24.5813H21.9948ZM20.362 24.5813V24.6675H20.3645C20.393 24.6214 20.4401 24.5669 20.5448 24.5669C20.6264 24.5669 20.6889 24.6122 20.7155 24.6806H20.718C20.7408 24.646 20.767 24.6199 20.7964 24.6015C20.8313 24.5795 20.8698 24.5669 20.9185 24.5669C21.0288 24.5669 21.1265 24.6451 21.1265 24.8423V25.2162H20.9582V24.8683C20.9582 24.7684 20.9252 24.7106 20.8563 24.7106C20.8059 24.7106 20.7692 24.7453 20.7554 24.7879C20.7507 24.8026 20.7484 24.8227 20.7484 24.8394V25.2162H20.5803V24.8543C20.5803 24.7695 20.5485 24.7106 20.4806 24.7106C20.4264 24.7106 20.3924 24.7543 20.3785 24.7919C20.3724 24.8079 20.3705 24.8264 20.3705 24.8438V25.2162H20.2022V24.5813H20.362Z" fill="white"/>
<path fill-rule="evenodd" clip-rule="evenodd" d="M23.4265 24.516L23.3936 24.1349C23.3936 24.0973 23.4366 24.0664 23.4907 24.0664C23.5448 24.0664 23.5878 24.0973 23.5878 24.1349L23.555 24.516C23.5512 24.539 23.5238 24.5566 23.4906 24.5566C23.4574 24.5566 23.4301 24.539 23.4265 24.516M23.2233 24.7123L22.8851 24.5509C22.8534 24.5322 22.8486 24.4784 22.8757 24.4305C22.9027 24.3824 22.9503 24.3597 22.982 24.3786L23.2875 24.5982C23.305 24.613 23.3063 24.646 23.2897 24.6756C23.2732 24.705 23.2444 24.7204 23.2233 24.7123M23.6936 24.5982L23.9991 24.3786C24.0307 24.3597 24.0785 24.3824 24.1056 24.4305C24.1325 24.4784 24.128 24.5322 24.0962 24.5509L23.7578 24.7123C23.7367 24.7204 23.7081 24.705 23.6914 24.6756C23.6748 24.6461 23.6762 24.613 23.6936 24.5982M23.4906 25.0325C23.5238 25.0325 23.5512 25.0501 23.555 25.0731L23.5878 25.454C23.5878 25.4919 23.5448 25.5227 23.4907 25.5227C23.4366 25.5227 23.3936 25.4919 23.3936 25.454L23.4265 25.0731C23.4301 25.0501 23.4574 25.0325 23.4906 25.0325M23.6914 24.9135C23.7081 24.884 23.7367 24.8687 23.7578 24.8768L24.0962 25.0381C24.128 25.057 24.1325 25.1107 24.1056 25.1586C24.0785 25.2065 24.0307 25.2294 23.9991 25.2105L23.6936 24.9911C23.6762 24.9761 23.6748 24.943 23.6914 24.9135M23.2897 24.9135C23.3063 24.943 23.305 24.9761 23.2875 24.9911L22.982 25.2105C22.9503 25.2294 22.9027 25.2065 22.8757 25.1586C22.8486 25.1107 22.8534 25.057 22.8851 25.0381L23.2233 24.8768C23.2444 24.8687 23.2732 24.884 23.2897 24.9135" fill="#FFC225"/>
<path fill-rule="evenodd" clip-rule="evenodd" d="M30.0217 24.8374C30.0217 24.6935 29.9618 24.5669 29.7592 24.5669C29.6553 24.5669 29.5727 24.5969 29.5277 24.6236L29.5607 24.7392C29.6018 24.7126 29.6675 24.6905 29.7296 24.6905C29.8323 24.6902 29.8491 24.7502 29.8491 24.7886V24.7977C29.6251 24.7974 29.4836 24.8769 29.4836 25.0389C29.4836 25.1377 29.5556 25.2305 29.681 25.2305C29.7581 25.2305 29.8225 25.199 29.8611 25.1484H29.8649C29.8649 25.1484 29.8905 25.2581 30.0316 25.2162C30.024 25.1705 30.0217 25.1219 30.0217 25.0631V24.8374ZM29.8547 24.9894C29.8547 25.0011 29.8536 25.0132 29.8506 25.0238C29.8375 25.0677 29.7931 25.1049 29.7375 25.1049C29.6912 25.1049 29.6545 25.0779 29.6545 25.021C29.6545 24.9337 29.7481 24.9097 29.8547 24.9101V24.9894ZM26.718 24.3711C26.7353 24.4605 26.7844 24.7202 26.7844 24.7202C26.8051 24.827 26.824 24.9389 26.8384 25.0274H26.841C26.8549 24.9334 26.8769 24.8444 26.9003 24.734L26.9831 24.3711H27.1661L27.2435 24.7435C27.2639 24.8471 27.28 24.9269 27.2927 25.0232H27.2953C27.3092 24.9259 27.3273 24.8428 27.3474 24.7364L27.4217 24.3711H27.5975L27.3797 25.2162C27.2411 25.2474 27.1878 25.1901 27.1689 25.0992C27.1498 25.0084 27.1126 24.8354 27.1126 24.8354C27.0935 24.7405 27.0786 24.6738 27.0682 24.5764H27.0656C27.0506 24.6727 27.0352 24.7402 27.0119 24.8349L26.9206 25.2162C26.7789 25.245 26.7298 25.2023 26.7026 25.0858C26.6792 24.986 26.5329 24.3711 26.5329 24.3711H26.718ZM28.0967 24.8374C28.0967 24.6935 28.0368 24.5669 27.8343 24.5669C27.7303 24.5669 27.6478 24.5969 27.6027 24.6236L27.6357 24.7392C27.6769 24.7126 27.7425 24.6905 27.8045 24.6905C27.9073 24.6902 27.9242 24.7502 27.9242 24.7886V24.7977C27.7002 24.7974 27.5587 24.8769 27.5587 25.0389C27.5587 25.1377 27.6307 25.2305 27.7559 25.2305C27.833 25.2305 27.8974 25.199 27.9362 25.1484H27.94C27.94 25.1484 27.9656 25.2581 28.1065 25.2162C28.0992 25.1705 28.0967 25.1219 28.0967 25.0631V24.8374ZM27.9299 24.9894C27.9299 25.0011 27.9288 25.0132 27.9257 25.0238C27.9128 25.0677 27.8684 25.1049 27.8128 25.1049C27.7665 25.1049 27.7296 25.0779 27.7296 25.021C27.7296 24.9337 27.8232 24.9097 27.9299 24.9101V24.9894ZM28.2079 25.2162H28.3754V24.3711H28.2079V25.2162ZM30.7304 24.3711V24.5709H30.8763V24.7327H30.7304V24.9711C30.7304 25.0483 30.7496 25.0858 30.8067 25.0858C30.8334 25.0858 30.8531 25.0822 30.8702 25.0779L30.8723 25.2121C30.8493 25.2208 30.8007 25.2305 30.7512 25.2305C30.6931 25.2305 30.6444 25.2097 30.6149 25.1775C30.5812 25.1407 30.5654 25.0805 30.5654 24.9946V24.3711H30.7304ZM30.2851 24.5813V24.7011H30.2897C30.3206 24.6097 30.3939 24.5669 30.4583 24.5669C30.4745 24.5669 30.4834 24.5683 30.4964 24.5709V24.7371C30.4809 24.7349 30.4666 24.7327 30.4465 24.7327C30.3737 24.7327 30.3227 24.7761 30.31 24.8443C30.3074 24.8582 30.3062 24.8736 30.3062 24.8911V25.2162H30.1336V24.5813H30.2851ZM28.6523 24.5813V24.6675H28.6547C28.6832 24.6214 28.7304 24.5669 28.835 24.5669C28.9166 24.5669 28.9792 24.6122 29.0058 24.6806H29.0082C29.0311 24.646 29.0573 24.6199 29.0867 24.6015C29.1215 24.5795 29.16 24.5669 29.2088 24.5669C29.3191 24.5669 29.4167 24.6451 29.4167 24.8423V25.2162H29.2485V24.8683C29.2485 24.7684 29.2155 24.7106 29.1466 24.7106C29.0962 24.7106 29.0595 24.7453 29.0457 24.7879C29.0409 24.8026 29.0386 24.8227 29.0386 24.8394V25.2162H28.8706V24.8543C28.8706 24.7695 28.8388 24.7106 28.7709 24.7106C28.7167 24.7106 28.6827 24.7543 28.6688 24.7919C28.6627 24.8079 28.6608 24.8264 28.6608 24.8438V25.2162H28.4925V24.5813H28.6523Z" fill="white"/>
<path fill-rule="evenodd" clip-rule="evenodd" d="M31.7175 24.516L31.6847 24.1349C31.6847 24.0973 31.7276 24.0664 31.7818 24.0664C31.8359 24.0664 31.8789 24.0973 31.8789 24.1349L31.846 24.516C31.8422 24.539 31.8149 24.5566 31.7816 24.5566C31.7485 24.5566 31.7211 24.539 31.7175 24.516M31.5143 24.7123L31.1761 24.5509C31.1444 24.5322 31.1397 24.4784 31.1667 24.4305C31.1938 24.3824 31.2414 24.3597 31.2731 24.3786L31.5786 24.5982C31.5961 24.613 31.5974 24.646 31.5807 24.6756C31.5642 24.705 31.5354 24.7204 31.5143 24.7123M31.9846 24.5982L32.2901 24.3786C32.3218 24.3597 32.3695 24.3824 32.3966 24.4305C32.4235 24.4784 32.419 24.5322 32.3872 24.5509L32.0489 24.7123C32.0278 24.7204 31.9991 24.705 31.9825 24.6756C31.9658 24.6461 31.9673 24.613 31.9846 24.5982M31.7816 25.0325C31.8149 25.0325 31.8422 25.0501 31.846 25.0731L31.8789 25.454C31.8789 25.4919 31.8359 25.5227 31.7818 25.5227C31.7276 25.5227 31.6847 25.4919 31.6847 25.454L31.7175 25.0731C31.7211 25.0501 31.7485 25.0325 31.7816 25.0325M31.9825 24.9135C31.9991 24.884 32.0278 24.8687 32.0489 24.8768L32.3872 25.0381C32.419 25.057 32.4235 25.1107 32.3966 25.1586C32.3695 25.2065 32.3218 25.2294 32.2901 25.2105L31.9846 24.9911C31.9673 24.9761 31.9658 24.943 31.9825 24.9135M31.5807 24.9135C31.5974 24.943 31.5961 24.9761 31.5786 24.9911L31.2731 25.2105C31.2414 25.2294 31.1938 25.2065 31.1667 25.1586C31.1397 25.1107 31.1444 25.057 31.1761 25.0381L31.5143 24.8768C31.5354 24.8687 31.5642 24.884 31.5807 24.9135" fill="#FFC225"/>
</g>
</g>
</svg>
